<?xml version="1.0" encoding="iso-8859-1"?>
<!-- Generator: Adobe Illustrator 16.0.0, SVG Export Plug-In . SVG Version: 6.00 Build 0)  -->
<!DOCTYPE svg PUBLIC "-//W3C//DTD SVG 1.1//EN" "http://www.w3.org/Graphics/SVG/1.1/DTD/svg11.dtd">
<svg version="1.1" id="Capa_1" xmlns="http://www.w3.org/2000/svg" xmlns:xlink="http://www.w3.org/1999/xlink" x="0px" y="0px"
	 width="569.858px" height="569.858px" viewBox="0 0 569.858 569.858" style="enable-background:new 0 0 569.858 569.858;"
	 xml:space="preserve" fill="#4893f4">
<g>
	<path d="M155.711,569.858h258.436c21.22,0,38.433-17.203,38.433-38.441V38.441C452.579,17.213,435.376,0,414.146,0H155.711
		c-21.238,0-38.432,17.213-38.432,38.441v492.976C117.289,552.655,134.473,569.858,155.711,569.858z M284.288,546.392
		c-13.378,0-24.203-10.814-24.203-24.184c0-13.368,10.825-24.184,24.203-24.184c13.33,0,24.184,10.825,24.184,24.184
		C308.481,535.577,297.618,546.392,284.288,546.392z M169.146,74.004c0-5.843,4.733-10.585,10.586-10.585h210.375
		c5.853,0,10.586,4.733,10.586,10.585v379.516c0,5.843-4.733,10.586-10.586,10.586H179.732c-5.853,0-10.586-4.743-10.586-10.586
		V74.004L169.146,74.004z"/>
	<path d="M279.316,293.875c1.319,1.367,3.528,2.229,5.89,2.229c2.362,0.028,4.581-0.871,5.833-2.162l58.274-58.675
		c3.892-3.93,2.572-7.105-2.965-7.105H224.475c-5.537,0-6.866,3.184-2.983,7.124L279.316,293.875z"/>
	<path d="M212.483,325.269l39.675-40.564l-39.637-40.163c-3.892-3.939-7.038-2.649-7.038,2.888v74.989
		C205.483,327.937,208.62,329.218,212.483,325.269z"/>
	<path d="M308.979,294.133l-8.798,8.875c-4.121,4.13-9.61,5.976-14.965,5.976c-5.346-0.009-10.873-1.854-15.051-6.043l-8.951-9.075
		l-39.79,40.679c-3.863,3.949-2.515,7.153,3.012,7.153h120.994c5.527,0,6.876-3.204,3.022-7.162L308.979,294.133z"/>
	<path d="M357.374,325.25c3.863,3.958,7,2.677,7-2.85v-73.985c0-5.537-3.165-6.837-7.066-2.917l-39.235,39.493L357.374,325.25z"/>
</g>
<g>
</g>
<g>
</g>
<g>
</g>
<g>
</g>
<g>
</g>
<g>
</g>
<g>
</g>
<g>
</g>
<g>
</g>
<g>
</g>
<g>
</g>
<g>
</g>
<g>
</g>
<g>
</g>
<g>
</g>
</svg>
